#!OML:ASF H:\Not Pregnant\Project 1\Capture day 1\Session 1\non-pregnant.ASF
:FULLY-SPECIFIED
:DEGREES
453
root -7.82997 16.5044 -19.7351 -174.681 1.69442 -170.97
lowerback 2.75364 3.22276 8.85048
upperback -6.28002 5.44795 1.11528
thorax -7.524 2.37153 -4.24663
lowerneck 22.1104 -7.84667 -30.0255
upperneck -8.26804 -21.3613 41.9099
head 2.65381 -14.3671 21.0096
rclavicle -2.2413e-014 -1.19271e-015
rhumerus -26.2755 -1.83119 -84.798
rradius 29.9993
rwrist 19.8538
rhand -11.5849 -0.639482
rfingers 7.12502
rthumb 14.457 -30.1159
lclavicle -2.2413e-014 -1.19271e-015
lhumerus -47.2711 -3.86102 86.0389
lradius 35.5082
lwrist 39.5165
lhand -15.1746 -11.3145
lfingers 7.12502
lthumb 10.9963 18.3775
rfemur -12.7155 -1.69151 35.0138
rtibia 28.9233
rfoot -20.0917 15.4845
rtoes -3.0579
lfemur -39.2314 1.61949 -9.99684
ltibia 42.7303
lfoot -12.4877 4.59106
ltoes -28.259
454
root -7.85086 16.5119 -19.848 -174.626 1.89125 -170.847
lowerback 2.80521 3.29927 9.10644
upperback -6.28183 5.57604 1.11503
thorax -7.52135 2.42004 -4.39972
lowerneck 22.1471 -7.85235 -30.0466
upperneck -8.36337 -21.3552 41.9415
head 2.62911 -14.3685 21.0389
rclavicle -4.76586e-014 -3.93594e-014
rhumerus -26.127 -1.77618 -84.8847
rradius 30.1969
rwrist 19.6734
rhand -11.6427 -0.649598
rfingers 7.12502
rthumb 14.4013 -30.13
lclavicle -4.76586e-014 -3.93594e-014
lhumerus -47.2159 -3.6024 85.9529
lradius 35.5445
lwrist 39.5544
lhand -15.4304 -11.3078
lfingers 7.12502
lthumb 10.7496 18.3972
rfemur -11.9847 -1.60629 35.0253
rtibia 28.3243
rfoot -20.0764 15.5638
rtoes -3.28114
lfemur -39.3772 0.915977 -9.48894
ltibia 40.8741
lfoot -11.6466 4.13419
ltoes -28.5883
455
root -7.87171 16.5191 -19.9621 -174.57 2.09003 -170.721
lowerback 2.83605 3.37623 9.35522
upperback -6.285 5.70341 1.11958
thorax -7.5083 2.46976 -4.542
lowerneck 22.1856 -7.8553 -30.069
upperneck -8.44911 -21.3502 41.9707
head 2.60662 -14.3705 21.0674
rclavicle 2.0276e-014 -9.14409e-015
rhumerus -26.0051 -1.73639 -84.9663
rradius 30.3766
rwrist 19.4958
rhand -11.7126 -0.645724
rfingers 7.12502
rthumb 14.3339 -30.1309
lclavicle 2.0276e-014 -9.14409e-015
lhumerus -47.1273 -3.32827 85.8631
lradius 35.4751
lwrist 39.5124
lhand -15.6476 -11.3662
lfingers 7.12502
lthumb 10.5401 18.3495
rfemur -11.2452 -1.50569 35.0378
rtibia 27.7159
rfoot -20.052 15.6186
rtoes -3.58913
lfemur -39.5048 0.230486 -8.96855
ltibia 39.1489
lfoot -10.7907 3.78775
ltoes -28.9622
456
root -7.8927 16.526 -20.0766 -174.504 2.28305 -170.629
lowerback 2.84497 3.44844 9.55943
upperback -6.29686 5.81978 1.11878
thorax -7.4954 2.51665 -4.66323
lowerneck 22.2048 -7.86469 -30.0919
upperneck -8.48946 -21.3578 41.9743
head 2.60014 -14.3734 21.0738
rclavicle 2.97183e-014 1.66979e-014
rhumerus -25.9228 -1.7079 -85.0466
rradius 30.5502
rwrist 19.3314
rhand -11.7811 -0.639753
rfingers 7.12502
rthumb 14.2679 -30.1296
lclavicle 2.97183e-014 1.66979e-014
lhumerus -47.0304 -3.04666 85.7754
lradius 35.3384
lwrist 39.4289
lhand -15.8408 -11.4372
lfingers 7.12502
lthumb 10.3537 18.2879
rfemur -10.5239 -1.39016 35.0126
rtibia 27.122
rfoot -20.028 15.6481
rtoes -3.94014
lfemur -39.6313 -0.432505 -8.48748
ltibia 37.5778
lfoot -10.0061 3.53435
ltoes -29.2387
457
root -7.91306 16.532 -20.1916 -174.423 2.48866 -170.55
lowerback 2.83058 3.52118 9.72521
upperback -6.31612 5.93351 1.12257
thorax -7.48013 2.5652 -4.75665
lowerneck 22.2064 -7.87677 -30.1166
upperneck -8.49885 -21.372 41.9635
head 2.60517 -14.3763 21.0672
rclavicle -2.72832e-014 -1.51076e-014
rhumerus -25.8796 -1.6899 -85.1242
rradius 30.7244
rwrist 19.1852
rhand -11.8469 -0.627433
rfingers 7.12502
rthumb 14.2045 -30.1217
lclavicle -2.72832e-014 -1.51076e-014
lhumerus -46.9121 -2.75039 85.6873
lradius 35.1172
lwrist 39.3051
lhand -15.9978 -11.5273
lfingers 7.12502
lthumb 10.2023 18.2053
rfemur -9.83357 -1.2224 34.9792
rtibia 26.5617
rfoot -19.9963 15.6494
rtoes -4.29437
lfemur -39.764 -1.02829 -8.03381
ltibia 36.1819
lfoot -9.36989 3.36344
ltoes -29.3702
